<?xml version="1.0" encoding="utf-8"?>
<svg version="1.1" id="Layer_1" xmlns="http://www.w3.org/2000/svg" xmlns:xlink="http://www.w3.org/1999/xlink" x="0px" y="0px"
   viewBox="0 0 250.4 56" style="enable-background:new 0 0 250.4 56;" xml:space="preserve">
<style type="text/css">
  .st0{fill:#36494F;}
</style>
<g>
  <path class="st0" d="M5.6,16.9c-0.5,3-2.3,5.2-5.6,6.5v-0.2c1.8-1.1,2.8-2.2,3.2-3.3c-1.6,0.1-2.6,0.4-3,0.9c0.2-1.4,0.6-2.4,1.2-3
    C1.6,17.5,3,17.2,5.6,16.9z M90.6,26.2c0,1.8-0.4,3.3-1.1,4.6c-0.7,1.5-1.8,2.3-3.2,2.3c-0.9,0-1.6-0.1-2.1-0.2c0,0.6,0,1.2,0,1.8
    c0,2.3-0.3,3.8-0.9,4.4c-4.7,5.4-9.1,8.1-13.2,8.1c-1.8,0-3.1-0.8-4-2.5c-0.8-1.3-1.2-2.8-1.2-4.4c0-2.7,0.6-6,1.9-10
    c-1.4,1.1-3.7,3.2-7,6.5c-3.6,3.5-6.3,6-7.9,7.4c-3,2.3-5.5,3.5-7.4,3.5c-1.4,0-2.6-0.7-3.7-2c-1.1-1.3-1.6-2.9-1.6-4.7
    c0-2.1,0.7-4.8,2.1-8.1C41.2,33,40.9,33,40.6,33c-0.8,0-1.5-0.1-2.1-0.2c0,0.6,0,1.2,0,1.8c0,2.3-0.2,3.7-0.7,4.2
    c-5.5,5.4-10,8.1-13.3,8.1c-1.8,0-3.1-0.7-4-2.1c-0.9-1.4-1.4-3.1-1.4-5.1c0-0.7,0.3-2.3,0.9-4.7c0.6-2.4,0.9-4.5,0.9-6.2
    c0-1.4-0.2-2.8-0.5-4c-1.4-0.4-2.8-1.3-4.2-3c-1.4-1.6-2.3-2.5-2.8-2.5c-0.6,0-1.5,1-2.8,3c-0.9,1.5-1.8,3-2.5,4.6
    c2.7,1.4,4,4.4,4,9.1h-0.9c-1.3-0.6-2.5-1.2-3.7-1.9c-1.2-0.8-1.8-2-1.8-3.7c-2.7,1.3-4,3-4,5.3c0,0.2,1.1,2.9,3.4,8.1
    C7.3,48.9,8.4,53,8.4,56H8.1c-0.2-1.9-1.6-5.3-4-10.4C1.8,41,0.7,37.6,0.7,35.5c0-3,1.8-5.9,5.4-8.4c0.5-1.5,1.6-3.6,3.5-6.1
    c2.1-3,3.8-4.6,5.1-4.6c0.5,0,1.6,1.1,3.3,3.2c-0.2-0.6-0.4-1.2-0.4-1.8c0-1.5,0.5-2.8,1.6-3.9c1.1-1.1,2.3-1.6,3.9-1.6
    c1.2,0,3.5,0.6,6.8,1.7c3.4,1.1,6.4,1.7,9,1.7l-2.1,3.5c-1.6,0.2-4.3,1.3-7.9,3.2c-3.2,1.6-5.8,2.5-7.9,2.5c-0.1,0-0.4,0-0.7,0
    c0.6,1.6,0.9,3.4,0.9,5.3c0,1.5-0.2,3.2-0.6,5.1C20.2,37,20,38,20,38.3c0,3.7,1.5,5.6,4.6,5.6c2.2,0,4.8-1.2,7.7-3.5
    c1.9-1.5,3.6-3.1,5.3-4.7c0-0.8-0.5-2.1-1.4-3.9c-0.5-1.1-1-2.1-1.6-3.2l1.2-3c1.1,1.6,1.8,2.7,2.3,3.3c0.8,0.8,1.7,1.2,2.6,1.2
    c1.2,0,2.1-0.5,2.8-1.4c0-1.8-0.1-3.5-0.4-5.1l-3-18.6c-0.1-1.2-0.4-2-0.7-2.6L40.4,0l3.2,5.8v1.1L42,5.3c-0.1,0.2-0.1,0.5,0,0.7
    l2.6,17.7c0.1,0.5,0.2,1.3,0.2,2.5c0,3.5-0.9,5.7-2.8,6.5c-1.2,2.6-1.8,4.9-1.8,6.8c0,1.1,0.4,2,1.2,3c0.9,1.1,2,1.6,3.3,1.6
    c2.1,0,4.8-1.6,8.1-4.7c2.9-2.7,5.9-5.4,8.8-8.3c2.2-1.9,4.4-3.5,6.5-4.7c-0.6-0.2-1.5-0.9-2.6-1.9C63.9,23.1,63,21.7,63,20
    c0-2.7,1.5-4,4.4-4c5.6,0,11.7,1,18.3,3l-2.3,3.5c-2.1,0.7-5.9,2.2-11.4,4.6c0.6,0.9,1.2,3.2,1.9,6.7c-3.2,0-4.7-0.9-4.7-2.8
    c0-0.2,0.1-0.6,0.2-1.2c0.1-0.6,0.2-1,0.2-1.2c-0.5,0.4-1.2,0.8-2.1,1.4c-1.2,3.7-1.8,6.6-1.8,8.4c0,3.7,1.6,5.6,4.7,5.6
    c3.4,0,7.7-2.8,13-8.3c-0.1-0.8-0.6-2.1-1.4-3.9c-0.6-0.9-1.1-1.9-1.6-3l1.1-3.2c1.1,1.8,1.9,2.9,2.5,3.3c0.7,0.8,1.6,1.2,2.6,1.2
    c1.2,0,2.1-0.5,2.8-1.4c-0.1-1.8-0.3-3.5-0.5-5.1L86,5.3C85.8,4,85.6,3,85.3,2.5L86.2,0l3,5.8v1.1l-1.4-1.6c-0.1,0.4-0.1,0.6,0,0.9
    l2.6,17.6C90.6,24.2,90.6,25,90.6,26.2z M12.1,10.5c0,2-0.6,3-1.9,3c-1.2,0-1.8-0.6-1.8-1.9c0-0.8,0.2-1.8,0.5-3
    C9.7,7.2,10,6.4,10,6.1c0.2,0.9,0.3,1.6,0.2,1.9C11.5,8.8,12.1,9.6,12.1,10.5z M11.6,11.2c-0.5-0.6-1.2-1-2.1-1.2
    c-0.5,0.5-0.7,0.8-0.7,0.9c0,0.7,0.4,1.1,1.2,1.1C10.6,11.9,11.1,11.7,11.6,11.2z M16.3,40.2l-1.2,1.9c-0.7,0.2-1.5,0.4-2.3,0.5
    c-1.3,0.5-1.9,1-1.9,1.6c0.6,2.3,0.9,4,0.9,4.9c0,2.1-0.1,3.3-0.2,3.7c0-1.3-0.2-3-0.7-5.1c-0.5-2.1-0.7-3.5-0.7-4
    c0-1.1,0.4-1.8,1.1-2.1c0.8-0.4,1.5-0.6,2.2-0.9c-0.5-0.4-0.9-0.5-1.2-0.5l-1.1,0.9v-0.9c0.4-0.5,0.6-0.9,0.9-1.3
    c0.2-0.4,0.5-0.6,0.9-0.6C13.7,38.3,14.8,38.9,16.3,40.2z M17.7,31.4l-1.4,2.8l-3-1.4l1.1-2.5L11.8,29l1.2-2.8l3.2,1.4L14.9,30
    L17.7,31.4z M32.7,17.9c-0.7-0.1-2.3-0.5-4.9-1.2c-2.1-0.7-3.7-1.1-4.9-1.1c-2.7,0-4,1-4,3c0,0.8,0.3,1.6,0.9,2.5
    c0.5,0.5,1.1,0.7,1.8,0.7c1.6,0,3.5-0.5,5.6-1.4C30.4,18.8,32.3,18,32.7,17.9z M34.2,31.3c-1.8,4.4-4,6.7-6.7,6.7c-2,0-3-0.9-3-2.8
    c0-1.5,1.3-3.1,3.9-4.7C28,30,27.5,29.9,27,29.9c-0.6,0-1.2,0.3-1.8,0.9V30c0.6-1.3,1.4-1.9,2.5-1.9c1.8,0,3.2,0.2,4.2,0.7
    l-2.1,1.9c-0.8,0.2-1.7,0.8-2.7,1.6c-1,0.8-1.5,1.5-1.5,2.1c0,1.1,0.9,1.6,2.8,1.6c1.3,0,2.6-0.7,3.9-2.1
    C32.9,33,33.5,32.1,34.2,31.3z M37.4,7.4c0,1.4-0.5,2.1-1.4,2.1c-0.5,0-0.9-0.2-1.4-0.7c-0.4,0.9-0.9,1.4-1.6,1.4
    c-0.8,0-1.2-0.5-1.2-1.6c0-0.7,0-1.4,0-2.1c-0.2,0.2-0.5,0.6-0.9,1.1V6.8c0.2-0.6,0.8-1.3,1.8-2.3c-0.4,2.5-0.1,3.7,0.7,3.7
    c0.6,0,0.9-0.4,0.9-1.2c0-0.4-0.1-1.1-0.4-2.1l0.5-1.1c0.4,0.6,0.6,1.5,0.7,2.6c0,0.8,0.3,1.2,0.9,1.2c0.4,0,0.5-0.3,0.5-0.9
    L36,4.6l0.7-1.2C37.2,4.9,37.4,6.2,37.4,7.4z M47.4,37.6c-0.1,1.6-0.7,2.5-1.8,2.5s-1.6-0.5-1.6-1.6c0-1.5,0.8-3.3,2.5-5.3
    c-0.8,1.9-1.2,3.2-1.2,4c0,0.8,0.3,1.2,0.9,1.2c0.6,0,0.9-0.3,1.1-0.9H47.4z M50.9,27.4c0,2.5-0.3,4.3-0.9,5.6h-0.4
    c0.1-2.6,0-5.3-0.4-8.1L46.2,5.1c-0.1-1.2-0.4-2-0.7-2.6L46.4,0l3,5.8v1.1l-1.4-1.6c-0.1,0.2-0.1,0.5,0,0.7l2.8,18.8
    C50.9,25.3,50.9,26.2,50.9,27.4z M58.8,5.4c0,0.5-0.2,1-0.5,1.6c-0.4-0.4-0.6-0.5-0.9-0.5c-0.6,0-1.1,0.8-1.4,2.5
    c-0.2,1.1-0.4,2.2-0.5,3.5c-0.4-0.9-0.9-2.2-1.8-3.7c-0.1,0.6-0.5,0.9-1.1,0.9c-0.9,0-1.4-0.5-1.4-1.6c0-1.3,0.4-1.9,1.2-1.9
    c1.1,0,2,1.2,2.8,3.7C56,5.6,56.9,3.5,58,3.5C58.5,3.5,58.8,4.2,58.8,5.4z M59,15.3c-0.5,3.2-2.3,5.3-5.4,6.5l-0.2-0.2
    c1.8-1.1,2.8-2.2,3.2-3.3c-1.6,0.1-2.6,0.4-3,0.9c0.2-1.4,0.6-2.4,1.2-3C55,15.9,56.4,15.6,59,15.3z M58.8,26.2L57.4,29l-3-1.4
    l1.4-2.8L58.8,26.2z M62,45c0,1.6-0.6,2.5-1.8,2.5c-1.1,0-1.6-0.5-1.6-1.6c0-1.5,0.8-3.3,2.5-5.3h0.2c-0.9,1.9-1.4,3.2-1.4,4
    c0,0.8,0.3,1.2,0.9,1.2c0.6,0,0.9-0.3,1.1-0.9H62z M65.2,7.4c0,1.4-0.3,3-0.9,4.7c0.1-0.9,0.2-2,0.2-3.2c0-2.1-0.6-3.7-1.9-4.9
    l0.2-2.1c0.8,0.5,1.4,1.3,1.8,2.5C64.9,5.6,65.2,6.6,65.2,7.4z M79.7,21.2c-3.3-1.4-7.1-2.1-11.4-2.1c-2.1,0-3.5,0.2-4.2,0.7
    c0,0.2,0.8,0.9,2.3,2c1.5,1.1,2.8,2.2,3.9,3.2C72.7,23.9,75.9,22.7,79.7,21.2z M83.6,1.4c0,0.7-0.2,1.5-0.6,2.5
    c-0.4,0.9-0.9,1.6-1.5,2.1c0.7-1.4,1.1-2.4,1.1-3c-6,1.9-11.4,5-16.3,9.5c0.1-0.6,0.2-1.2,0.4-1.8c2-2,4.7-3.9,8-5.6
    C77.9,3.3,80.9,2.1,83.6,1.4z M79.2,32.3c0.2,0.9,0,1.5-0.7,1.6c-0.4,0.1-0.9-0.1-1.6-0.7c-0.5,0.8-1.2,1.9-2.3,3.3
    c-1.3,1.5-3,2.5-5.1,2.8L68,39.7c1.6-0.8,3.5-2,5.4-3.5c1.6-1.3,2.7-2.6,3.3-3.9c0.5-0.9,0.9-1.5,1.2-1.6
    C78.6,30.6,79,31.1,79.2,32.3z M80.6,11.4c0,1.4-0.5,2.1-1.4,2.1c-0.5,0-0.9-0.3-1.4-0.9c-0.4,0.9-0.9,1.4-1.6,1.4
    s-1.1-0.5-1.2-1.4c0-0.8,0-1.6,0-2.3c-0.2,0.4-0.5,0.7-0.7,1.1v-0.5c0.1-0.6,0.6-1.3,1.6-2.3c-0.4,2.3-0.1,3.5,0.7,3.5
    c0.6,0,0.9-0.4,0.9-1.1c0-0.4-0.1-1.1-0.4-2.3l0.7-0.9c0.2,0.5,0.4,1.3,0.5,2.5c0,0.8,0.3,1.2,0.9,1.2c0.4,0,0.5-0.2,0.5-0.7
    c0-0.1-0.2-0.9-0.5-2.3l0.7-1.4C80.4,8.7,80.6,10.1,80.6,11.4z M78.8,32.8c-0.5-0.7-1-0.9-1.6-0.5C78,32.8,78.5,33,78.8,32.8z
     M94.8,40c0,1.2-0.4,1.8-1.1,1.8c-0.5,0-1-0.2-1.6-0.5c-2,3.6-5.7,5.4-11.1,5.3H81v-0.2c5.3-1.3,8.8-3.1,10.7-5.4
    c-0.6-0.2-0.9-0.6-0.9-1.1c0-0.4,0.2-0.8,0.5-1.2c0.4-0.5,0.6-0.7,0.9-0.7L92,37.2l0.2-0.2c0.2,0,0.6,0.2,1.2,0.7v0.2
    C94.4,39,94.8,39.7,94.8,40z M96.8,27.4c0,2.5-0.3,4.3-0.9,5.6h-0.4c0.1-2.6-0.1-5.3-0.5-8.1L92,5.1c-0.2-1.2-0.5-2-0.7-2.6L92.2,0
    l3,5.8v1.1l-1.4-1.6c-0.1,0.2-0.2,0.5-0.2,0.7l3,18.8C96.7,25.3,96.8,26.2,96.8,27.4z M92.9,39.2c0-0.2-0.1-0.4-0.4-0.4
    c-0.5,0-0.8,0.2-1.1,0.5c0.2,0.4,0.6,0.6,1.1,0.7c0-0.1,0.1-0.3,0.2-0.4C92.8,39.4,92.9,39.3,92.9,39.2z M250.4,32.7
    c0,1.6-0.4,3-1.1,4c-0.8,1.1-1.6,1.6-2.5,1.6c-1.8,0-3-1.1-3.7-3.3c-0.5,2.2-1.5,3.3-3,3.3c-1.4,0-2.3-0.9-2.8-2.8
    c-0.9,2.2-2.6,3.3-4.9,3.3c-0.8,0-1.5-0.3-2-1c-0.5-0.6-0.8-1.4-0.8-2.2c0-0.4,0-0.6,0-0.9c-16.5,5.1-33.4,7.7-50.6,7.7
    c-8.3,0-16.4-0.7-24.4-2.1c-7.6-1.2-13.3-2.8-17-4.7c0,1.6-0.1,3.3-0.2,4.9H137c-1.4-0.9-2.3-2-2.6-3.3c-0.1-0.9-0.2-1.8-0.3-2.6
    c-0.1-0.8-0.8-1.2-2.2-1.2c-1.3,0-3.5,1.9-6.6,5.6c-3.1,3.7-5.5,5.6-7.1,5.6c-0.9,0-1.8-0.4-2.5-1.3c-0.7-0.9-1.1-2.1-1.1-3.6
    c0-0.8,0.2-1.8,0.5-3c-0.6,0.2-1.2,0.4-1.8,0.4c-2.3,0-3.9-1.6-4.6-4.7c-0.2,3.9-2,5.8-5.3,5.8c-1.4,0-2.5-0.8-3.2-2.3
    c-0.5-1.2-0.6-2.5-0.5-4c0-0.2,0.1-1.1,0.4-2.5c0.1-1.2,0.2-2.2,0.2-3.2c-0.8,1.2-1.4,2.7-1.8,4.6c-0.2,1.3-0.5,2.6-0.7,3.9
    c-0.5,2.1-1.2,3.2-2.3,3.2c-0.8,0-1.5-0.7-2.1-2c-0.6-1.3-0.9-2.8-0.9-4.3c0-1.6,0.1-3.5,0.4-5.4l0.4,0.2c-0.1,0.9-0.2,1.9-0.2,2.8
    c0,4,0.8,6,2.5,6c0.6,0,1.1-0.9,1.6-2.6c0.8-2.9,1.3-4.6,1.4-5.1c0.8-2,1.9-3.3,3.2-4v2.3c-0.5,3-0.7,4.9-0.7,5.6
    c0,2.6,0.9,3.9,2.8,3.9c1.2,0,2.2-0.5,3.1-1.4c0.9-0.9,1.3-2,1.3-3.3l-1.2-6.8l0.9-2.5c0.6,1.2,0.9,2.1,1.1,2.8
    c0.4,2,0.6,4,0.9,6.1c0.7,2.9,2,4.4,3.9,4.4c1.2,0,2-0.5,2.5-1.4c-0.6-1.3-1.2-2.6-1.8-3.9c-0.8-2.1-1.3-3.7-1.4-4.9l-0.5-1.2
    l0.7-2.5l2.5,3.9v0.9c-0.4-0.2-0.7-0.5-1.1-0.9c-0.1,0.2-0.1,0.4,0,0.4c1.6,3.7,2.5,6.3,2.5,7.7c0,2.1-0.5,3.5-1.4,4.2
    c-0.4,1.2-0.5,2-0.5,2.6c0,1.6,0.8,2.5,2.5,2.5c1.5,0,3.8-1.9,6.8-5.7c3-3.8,5.4-5.7,7.2-5.7c0.6,0,1.4,0.4,2.5,1.1l0.9-2.1
    c1.6,2.3,6.5,4.5,14.6,6.5c9.2,2.1,19.8,3.2,31.8,3.2c8.1,0,17-0.7,26.7-2.1c8.4-1.3,16-2.9,22.8-4.7c-0.2,0.4-0.4,0.8-0.4,1.2
    c0,0.7,0.2,1.3,0.7,1.9c0.5,0.6,1,0.9,1.6,0.9c1.2,0,2.4-0.6,3.7-1.8l2.3-2.3l0.2,0.2c0,0.2,0,0.5,0,0.7c0,1.6,0.6,2.5,1.8,2.5
    c0.6,0,1.2-0.5,1.9-1.6c0.8-1.4,1.4-2.2,1.8-2.5h0.2c0,0.2,0,0.5,0,0.7c0,0.9,0.3,1.8,1,2.5c0.6,0.8,1.3,1.1,1.8,1.1
    c1.2,0,1.8-0.5,1.8-1.4c0-1.1-0.9-3.2-2.6-6.3c-1.9-3.4-2.9-5.4-3-6.1c-0.1-0.2-0.3-0.6-0.5-1c-0.2-0.4-0.4-0.7-0.4-0.8l0.5-2.6
    l3.5,3.7v0.7l-1.6-0.7v0.4c0.9,1.4,1.9,2.8,2.8,4.2C249.6,28.6,250.4,30.9,250.4,32.7z M94.3,40.6c-0.2-0.2-0.6-0.6-1.1-1.2
    l-0.4,0.9c0.4,0.2,0.7,0.4,1.1,0.4C94.1,40.6,94.2,40.6,94.3,40.6z M115.2-0.4c0,0.6-0.2,1.3-0.7,2.3c-0.5,0.9-0.9,1.7-1.4,2.3
    c0.7-1.4,1.1-2.5,1.1-3.2c-7.3,2.3-13.4,5.8-18.4,10.4c0-0.6,0.1-1.2,0.4-1.9c2-1.9,5-3.9,9.1-6C109.1,1.5,112.4,0.2,115.2-0.4z
     M107.8,40.7c0,0.6-0.2,1.2-0.7,1.8c-0.2-0.4-0.5-0.5-0.9-0.5c-0.6,0-1.1,0.8-1.4,2.3c-0.1,1.2-0.3,2.3-0.5,3.5
    c-0.2-0.8-0.8-2-1.8-3.7c-0.1,0.7-0.4,1.1-0.9,1.1c-1.1,0-1.6-0.6-1.6-1.8c0-1.2,0.5-1.8,1.4-1.8c0.9,0,1.9,1.2,2.8,3.7
    c0.6-4.2,1.5-6.3,2.6-6.3C107.5,39,107.8,39.6,107.8,40.7z M108.2,14.8c0,1.4-0.5,2.1-1.6,2.1c-0.4,0-0.8-0.3-1.4-0.9
    c-0.2,0.9-0.8,1.4-1.6,1.4c-0.7,0-1.1-0.5-1.2-1.4c0-0.8,0-1.6,0-2.3c-0.2,0.4-0.5,0.7-0.7,1.1V14c0.2-0.5,0.8-1.2,1.6-2.1
    c-0.2,2.3,0,3.5,0.7,3.5c0.6,0,0.9-0.4,0.9-1.2c0-0.2-0.1-0.9-0.4-2.1l0.7-0.9c0.4,0.5,0.5,1.3,0.5,2.5c0.1,0.8,0.5,1.2,1.1,1.2
    c0.4,0,0.5-0.2,0.5-0.7c0-0.1-0.2-0.9-0.5-2.3l0.5-1.4C107.9,12.1,108.2,13.5,108.2,14.8z M112.6,12.8c0,1.4-0.3,3-0.9,4.7
    c0.1-0.9,0.2-2,0.2-3.2c0-2.1-0.6-3.7-1.9-4.9l0.2-2.3c0.7,0.6,1.3,1.5,1.8,2.6C112.3,11,112.6,12,112.6,12.8z M122,27.4
    c0,2.5-0.2,4.3-0.7,5.6H121c0.1-2.6-0.1-5.3-0.5-8.1l-3-19.8c-0.2-1.2-0.5-2-0.7-2.6l0.9-2.5l3,5.8v1.1l-1.4-1.6
    c-0.1,0.2-0.2,0.5-0.2,0.7l3,18.8C122,25.3,122,26.2,122,27.4z M133.3,39.5c0.1,1.1-0.1,1.6-0.7,1.8c-0.4,0-0.9-0.2-1.8-0.7
    c-0.5,0.8-1.2,1.9-2.1,3.2c-1.4,1.5-3.2,2.5-5.3,3l-1.4,0.2c1.5-0.7,3.3-1.8,5.3-3.3c1.8-1.4,2.9-2.8,3.5-4
    c0.5-0.9,0.8-1.5,1.1-1.6C132.5,37.9,132.9,38.5,133.3,39.5z M132.2,8.1c0,0.5-0.2,1-0.5,1.6c-0.4-0.4-0.6-0.5-0.9-0.5
    c-0.6,0-1.1,0.8-1.4,2.3c-0.2,1.3-0.4,2.5-0.5,3.5c-0.2-0.8-0.8-2-1.8-3.5c-0.1,0.6-0.5,0.9-1.1,0.9c-0.9,0-1.4-0.5-1.4-1.6
    c0-1.3,0.4-1.9,1.2-1.9c1.1,0,2,1.2,2.8,3.7c0.7-4.2,1.6-6.3,2.6-6.3C131.9,6.1,132.2,6.8,132.2,8.1z M132.8,17.7l-1.2,1.9
    c-0.7,0.2-1.5,0.5-2.3,0.7c-1.3,0.4-1.9,0.9-1.9,1.6c0.6,2.2,0.9,3.8,0.9,4.7c0,2.1-0.1,3.3-0.2,3.7c0-1.3-0.2-3-0.7-5
    c-0.5-2-0.7-3.4-0.7-4c0-1.2,0.4-1.9,1.1-2.3c0.8-0.4,1.5-0.6,2.2-0.9c-0.6-0.2-1.1-0.4-1.4-0.4c0.1,0-0.2,0.2-1.1,0.7l0.2-0.9
    c0.2-0.4,0.5-0.8,0.8-1.3c0.3-0.5,0.6-0.8,1-0.8C130.1,15.6,131.2,16.3,132.8,17.7z M132.9,40c-0.5-0.7-1-0.9-1.6-0.5
    C131.9,40,132.5,40.2,132.9,40z M136.6,35.3c-0.4-0.2-0.9-0.8-1.6-1.6c0,0.6,0.1,1.3,0.4,2c0.3,0.8,0.6,1.1,1,1.1
    C136.6,36.9,136.6,36.4,136.6,35.3z M226.9,42.7c-0.6,0-1-0.4-1.2-1.1c-0.8,1.1-1.6,1.6-2.3,1.6c-0.2,0-0.6-0.2-1.1-0.5
    c-0.5-0.4-0.9-0.5-1-0.5c-0.6,0-1.7,0.4-3.3,1.1c-2.1,0.9-3.8,1.6-5.1,2.1c-2.6,0.8-5.4,1.2-8.4,1.2l-0.2-0.4
    c2.6,0,5.1-0.5,7.7-1.6c1.4-0.5,3.4-1.4,6-2.8c1.9-1.1,3.2-1.6,4-1.6c0.2,0,0.6,0.2,1.1,0.7c0.5,0.5,0.9,0.7,1.2,0.7
    c0.5,0,1-0.6,1.6-1.8l0.5-0.4c-0.1,0.9,0.2,1.4,0.9,1.4c0.4,0,0.7-0.6,1.1-1.8l0.4-0.2C228.6,41.4,228.1,42.7,226.9,42.7z
     M240.8,10.7c0,0.5-0.2,1.1-0.7,1.8c-0.4-0.5-0.6-0.7-0.9-0.7c-0.6,0-1.1,0.8-1.4,2.5c-0.1,1.1-0.3,2.2-0.5,3.3
    c-0.4-0.8-0.9-2-1.8-3.5c-0.1,0.6-0.5,0.9-1.1,0.9c-0.9,0-1.4-0.5-1.4-1.6c0-1.3,0.4-1.9,1.2-1.9c1.1,0,2,1.2,2.8,3.7
    c0.7-4.2,1.6-6.3,2.6-6.3C240.4,8.8,240.8,9.4,240.8,10.7z M239.4,24.2c0,2.1-0.6,3.2-1.9,3.2c-1.2,0-1.8-0.6-1.8-1.9
    c0-0.8,0.2-1.8,0.7-3c0.7-1.4,1.1-2.2,1.1-2.5c0.2,0.9,0.3,1.6,0.2,1.9C238.8,22.7,239.4,23.4,239.4,24.2z M238.8,25.1
    c-0.5-0.6-1.2-1.1-2.1-1.4c-0.4,0.6-0.5,0.9-0.5,1.1c0,0.6,0.4,0.9,1.2,0.9C238,25.6,238.5,25.5,238.8,25.1z M247.6,41.8l-1.2,2.8
    l-3-1.6l1.2-2.8L247.6,41.8z"/>
</g>
</svg>
